<mxfile host="app.diagrams.net" modified="2023-10-30T13:15:00.308Z" agent="Mozilla/5.0 (Windows NT 10.0; Win64; x64; rv:109.0) Gecko/20100101 Firefox/119.0" etag="UbCcT9x8RV2VQOF0NjJz" version="22.0.8" type="github">
  <diagram name="Page-1" id="9eEiSDhphJwdaO5-5vNA">
    <mxGraphModel dx="712" dy="793" grid="1" gridSize="10" guides="1" tooltips="1" connect="1" arrows="1" fold="1" page="1" pageScale="1" pageWidth="827" pageHeight="1169" math="0" shadow="0">
      <root>
        <mxCell id="0" />
        <mxCell id="1" parent="0" />
        <mxCell id="BTWe6J0kIdqasKM9f--1-90" style="edgeStyle=orthogonalEdgeStyle;rounded=0;orthogonalLoop=1;jettySize=auto;html=1;strokeColor=#FF3333;fontColor=#1A1A1A;" edge="1" parent="1" source="BTWe6J0kIdqasKM9f--1-5">
          <mxGeometry relative="1" as="geometry">
            <mxPoint x="320" y="50" as="targetPoint" />
            <Array as="points">
              <mxPoint x="300" y="50" />
              <mxPoint x="300" y="50" />
            </Array>
          </mxGeometry>
        </mxCell>
        <mxCell id="BTWe6J0kIdqasKM9f--1-5" value="HTPPs" style="swimlane;whiteSpace=wrap;html=1;labelBackgroundColor=none;fillColor=#5D7F99;strokeColor=#D0CEE2;fontColor=#1A1A1A;" vertex="1" parent="1">
          <mxGeometry x="120" y="20" width="150" height="80" as="geometry" />
        </mxCell>
        <mxCell id="BTWe6J0kIdqasKM9f--1-6" value="www.foobar.com" style="text;html=1;align=center;verticalAlign=middle;resizable=0;points=[];autosize=1;strokeColor=none;fillColor=none;labelBackgroundColor=none;fontColor=#1A1A1A;" vertex="1" parent="BTWe6J0kIdqasKM9f--1-5">
          <mxGeometry x="10" y="30" width="110" height="30" as="geometry" />
        </mxCell>
        <mxCell id="BTWe6J0kIdqasKM9f--1-12" value="NGINX web Server" style="whiteSpace=wrap;html=1;aspect=fixed;labelBackgroundColor=none;fillColor=#EA6B66;strokeColor=#b85450;" vertex="1" parent="1">
          <mxGeometry x="80" y="350" width="140" height="140" as="geometry" />
        </mxCell>
        <mxCell id="BTWe6J0kIdqasKM9f--1-92" style="edgeStyle=orthogonalEdgeStyle;rounded=0;orthogonalLoop=1;jettySize=auto;html=1;entryX=0.25;entryY=1;entryDx=0;entryDy=0;strokeColor=#736CA8;fontColor=#1A1A1A;exitX=0.336;exitY=-0.007;exitDx=0;exitDy=0;exitPerimeter=0;" edge="1" parent="1" source="BTWe6J0kIdqasKM9f--1-26" target="BTWe6J0kIdqasKM9f--1-27">
          <mxGeometry relative="1" as="geometry">
            <Array as="points">
              <mxPoint x="197" y="530" />
              <mxPoint x="415" y="530" />
            </Array>
          </mxGeometry>
        </mxCell>
        <mxCell id="BTWe6J0kIdqasKM9f--1-26" value="&lt;div&gt;Server&lt;/div&gt;&lt;div&gt;&lt;br&gt;&lt;/div&gt;MySQL" style="whiteSpace=wrap;html=1;aspect=fixed;labelBackgroundColor=none;fillColor=#EA6B66;strokeColor=#D0CEE2;fontColor=#1A1A1A;" vertex="1" parent="1">
          <mxGeometry x="150" y="570" width="140" height="140" as="geometry" />
        </mxCell>
        <mxCell id="BTWe6J0kIdqasKM9f--1-59" style="edgeStyle=orthogonalEdgeStyle;rounded=0;orthogonalLoop=1;jettySize=auto;html=1;entryX=1;entryY=0.75;entryDx=0;entryDy=0;strokeColor=#736CA8;fontColor=#1A1A1A;" edge="1" parent="1" source="BTWe6J0kIdqasKM9f--1-27" target="BTWe6J0kIdqasKM9f--1-12">
          <mxGeometry relative="1" as="geometry">
            <Array as="points">
              <mxPoint x="350" y="455" />
              <mxPoint x="350" y="455" />
            </Array>
          </mxGeometry>
        </mxCell>
        <mxCell id="BTWe6J0kIdqasKM9f--1-97" style="edgeStyle=orthogonalEdgeStyle;rounded=0;orthogonalLoop=1;jettySize=auto;html=1;entryX=1;entryY=0.5;entryDx=0;entryDy=0;strokeColor=#82b366;fontColor=#1A1A1A;fillColor=#d5e8d4;exitX=0.014;exitY=0.579;exitDx=0;exitDy=0;exitPerimeter=0;" edge="1" parent="1" source="BTWe6J0kIdqasKM9f--1-27" target="BTWe6J0kIdqasKM9f--1-12">
          <mxGeometry relative="1" as="geometry">
            <Array as="points">
              <mxPoint x="383" y="421" />
              <mxPoint x="383" y="420" />
            </Array>
          </mxGeometry>
        </mxCell>
        <mxCell id="BTWe6J0kIdqasKM9f--1-27" value="&lt;div&gt;Application Server&lt;/div&gt;" style="whiteSpace=wrap;html=1;aspect=fixed;labelBackgroundColor=none;fillColor=#EA6B66;strokeColor=#D0CEE2;fontColor=#1A1A1A;" vertex="1" parent="1">
          <mxGeometry x="380" y="340" width="140" height="140" as="geometry" />
        </mxCell>
        <mxCell id="BTWe6J0kIdqasKM9f--1-87" style="edgeStyle=orthogonalEdgeStyle;rounded=0;orthogonalLoop=1;jettySize=auto;html=1;entryX=1;entryY=0.25;entryDx=0;entryDy=0;strokeColor=#736CA8;fontColor=#1A1A1A;exitX=-0.011;exitY=0.256;exitDx=0;exitDy=0;exitPerimeter=0;" edge="1" parent="1" source="BTWe6J0kIdqasKM9f--1-28" target="BTWe6J0kIdqasKM9f--1-26">
          <mxGeometry relative="1" as="geometry">
            <Array as="points">
              <mxPoint x="559" y="605" />
            </Array>
          </mxGeometry>
        </mxCell>
        <mxCell id="BTWe6J0kIdqasKM9f--1-28" value="&lt;div&gt;Database&lt;/div&gt;" style="shape=cylinder3;whiteSpace=wrap;html=1;boundedLbl=1;backgroundOutline=1;size=15;labelBackgroundColor=none;fillColor=#5D7F99;strokeColor=#D0CEE2;fontColor=#1A1A1A;" vertex="1" parent="1">
          <mxGeometry x="560" y="580" width="90" height="105.5" as="geometry" />
        </mxCell>
        <mxCell id="BTWe6J0kIdqasKM9f--1-38" value="DNS" style="shape=cylinder3;whiteSpace=wrap;html=1;boundedLbl=1;backgroundOutline=1;size=15;labelBackgroundColor=none;fillColor=#5D7F99;strokeColor=#D0CEE2;fontColor=#1A1A1A;" vertex="1" parent="1">
          <mxGeometry x="510" y="30" width="60" height="80" as="geometry" />
        </mxCell>
        <mxCell id="BTWe6J0kIdqasKM9f--1-49" value="Actor" style="shape=umlActor;verticalLabelPosition=bottom;verticalAlign=top;html=1;outlineConnect=0;strokeColor=#D0CEE2;fontColor=#1A1A1A;fillColor=#5D7F99;" vertex="1" parent="1">
          <mxGeometry x="30" y="10" width="30" height="50" as="geometry" />
        </mxCell>
        <mxCell id="BTWe6J0kIdqasKM9f--1-50" value="&lt;div&gt;Record IP&lt;/div&gt;&lt;div&gt;8.8.8.8&lt;br&gt;&lt;/div&gt;" style="shape=note;whiteSpace=wrap;html=1;backgroundOutline=1;darkOpacity=0.05;strokeColor=#D0CEE2;fontColor=#1A1A1A;fillColor=#5D7F99;" vertex="1" parent="1">
          <mxGeometry x="690" y="20" width="80" height="100" as="geometry" />
        </mxCell>
        <mxCell id="BTWe6J0kIdqasKM9f--1-52" style="edgeStyle=orthogonalEdgeStyle;rounded=0;orthogonalLoop=1;jettySize=auto;html=1;strokeColor=#FF3333;fontColor=#1A1A1A;" edge="1" parent="1" source="BTWe6J0kIdqasKM9f--1-38" target="BTWe6J0kIdqasKM9f--1-50">
          <mxGeometry relative="1" as="geometry">
            <mxPoint x="540" y="70" as="targetPoint" />
            <Array as="points">
              <mxPoint x="530" y="70" />
              <mxPoint x="530" y="90" />
              <mxPoint x="650" y="90" />
              <mxPoint x="650" y="88" />
            </Array>
          </mxGeometry>
        </mxCell>
        <mxCell id="BTWe6J0kIdqasKM9f--1-53" style="edgeStyle=orthogonalEdgeStyle;rounded=0;orthogonalLoop=1;jettySize=auto;html=1;entryX=-0.013;entryY=0.175;entryDx=0;entryDy=0;entryPerimeter=0;strokeColor=#736CA8;fontColor=#1A1A1A;" edge="1" parent="1" source="BTWe6J0kIdqasKM9f--1-49" target="BTWe6J0kIdqasKM9f--1-5">
          <mxGeometry relative="1" as="geometry" />
        </mxCell>
        <mxCell id="BTWe6J0kIdqasKM9f--1-58" style="edgeStyle=orthogonalEdgeStyle;rounded=0;orthogonalLoop=1;jettySize=auto;html=1;strokeColor=#FF3333;fontColor=#1A1A1A;" edge="1" parent="1" source="BTWe6J0kIdqasKM9f--1-12" target="BTWe6J0kIdqasKM9f--1-27">
          <mxGeometry relative="1" as="geometry">
            <mxPoint x="376" y="370" as="targetPoint" />
            <Array as="points">
              <mxPoint x="320" y="375" />
              <mxPoint x="320" y="370" />
            </Array>
          </mxGeometry>
        </mxCell>
        <mxCell id="BTWe6J0kIdqasKM9f--1-74" value="" style="edgeStyle=orthogonalEdgeStyle;rounded=0;orthogonalLoop=1;jettySize=auto;html=1;strokeColor=#FF3333;fontColor=#1A1A1A;" edge="1" parent="1" source="BTWe6J0kIdqasKM9f--1-64" target="BTWe6J0kIdqasKM9f--1-73">
          <mxGeometry relative="1" as="geometry">
            <Array as="points">
              <mxPoint x="370" y="130" />
              <mxPoint x="60" y="130" />
            </Array>
          </mxGeometry>
        </mxCell>
        <mxCell id="BTWe6J0kIdqasKM9f--1-96" style="edgeStyle=orthogonalEdgeStyle;rounded=0;orthogonalLoop=1;jettySize=auto;html=1;strokeColor=#736CA8;fontColor=#1A1A1A;exitX=0.083;exitY=0.625;exitDx=0;exitDy=0;exitPerimeter=0;" edge="1" parent="1" source="BTWe6J0kIdqasKM9f--1-64">
          <mxGeometry relative="1" as="geometry">
            <mxPoint x="270" y="70" as="targetPoint" />
            <Array as="points" />
          </mxGeometry>
        </mxCell>
        <mxCell id="BTWe6J0kIdqasKM9f--1-64" value="&lt;div&gt;Router&lt;/div&gt;&lt;div&gt;&lt;br&gt;&lt;/div&gt;" style="ellipse;whiteSpace=wrap;html=1;strokeColor=#D0CEE2;fontColor=#1A1A1A;fillColor=#5D7F99;" vertex="1" parent="1">
          <mxGeometry x="320" y="20" width="120" height="80" as="geometry" />
        </mxCell>
        <mxCell id="BTWe6J0kIdqasKM9f--1-68" style="edgeStyle=orthogonalEdgeStyle;rounded=0;orthogonalLoop=1;jettySize=auto;html=1;strokeColor=#FF3333;fontColor=#1A1A1A;exitX=1.008;exitY=0.425;exitDx=0;exitDy=0;exitPerimeter=0;" edge="1" parent="1" source="BTWe6J0kIdqasKM9f--1-64">
          <mxGeometry relative="1" as="geometry">
            <mxPoint x="400" y="79.44053188733074" as="sourcePoint" />
            <mxPoint x="510" y="54" as="targetPoint" />
            <Array as="points">
              <mxPoint x="480" y="54" />
              <mxPoint x="480" y="54" />
            </Array>
          </mxGeometry>
        </mxCell>
        <mxCell id="BTWe6J0kIdqasKM9f--1-71" style="edgeStyle=orthogonalEdgeStyle;rounded=0;orthogonalLoop=1;jettySize=auto;html=1;strokeColor=#736CA8;fontColor=#1A1A1A;" edge="1" parent="1">
          <mxGeometry relative="1" as="geometry">
            <mxPoint x="510" y="78" as="sourcePoint" />
            <mxPoint x="431" y="78" as="targetPoint" />
            <Array as="points">
              <mxPoint x="480" y="78" />
              <mxPoint x="480" y="78" />
            </Array>
          </mxGeometry>
        </mxCell>
        <mxCell id="BTWe6J0kIdqasKM9f--1-75" style="edgeStyle=orthogonalEdgeStyle;rounded=0;orthogonalLoop=1;jettySize=auto;html=1;strokeColor=#FF3333;fontColor=#1A1A1A;" edge="1" parent="1" source="BTWe6J0kIdqasKM9f--1-73">
          <mxGeometry relative="1" as="geometry">
            <mxPoint x="100" y="350" as="targetPoint" />
            <Array as="points">
              <mxPoint x="100" y="280" />
              <mxPoint x="100" y="280" />
            </Array>
          </mxGeometry>
        </mxCell>
        <mxCell id="BTWe6J0kIdqasKM9f--1-73" value="IP server 8.8.8.8" style="whiteSpace=wrap;html=1;fillColor=#EA6B66;strokeColor=#D0CEE2;fontColor=#1A1A1A;" vertex="1" parent="1">
          <mxGeometry x="10" y="230" width="120" height="60" as="geometry" />
        </mxCell>
        <mxCell id="BTWe6J0kIdqasKM9f--1-76" value="Python file" style="shape=note;whiteSpace=wrap;html=1;backgroundOutline=1;darkOpacity=0.05;strokeColor=#D0CEE2;fontColor=#1A1A1A;fillColor=#5D7F99;" vertex="1" parent="1">
          <mxGeometry x="590" y="340" width="80" height="100" as="geometry" />
        </mxCell>
        <mxCell id="BTWe6J0kIdqasKM9f--1-80" style="edgeStyle=orthogonalEdgeStyle;rounded=0;orthogonalLoop=1;jettySize=auto;html=1;entryX=0;entryY=0.3;entryDx=0;entryDy=0;entryPerimeter=0;strokeColor=#82b366;fontColor=#1A1A1A;fillColor=#d5e8d4;exitX=1;exitY=0.25;exitDx=0;exitDy=0;" edge="1" parent="1" source="BTWe6J0kIdqasKM9f--1-27" target="BTWe6J0kIdqasKM9f--1-76">
          <mxGeometry relative="1" as="geometry">
            <Array as="points">
              <mxPoint x="520" y="370" />
            </Array>
          </mxGeometry>
        </mxCell>
        <mxCell id="BTWe6J0kIdqasKM9f--1-86" style="edgeStyle=orthogonalEdgeStyle;rounded=0;orthogonalLoop=1;jettySize=auto;html=1;strokeColor=#FF3333;fontColor=#1A1A1A;" edge="1" parent="1" source="BTWe6J0kIdqasKM9f--1-26" target="BTWe6J0kIdqasKM9f--1-28">
          <mxGeometry relative="1" as="geometry">
            <mxPoint x="720" y="410" as="targetPoint" />
            <Array as="points">
              <mxPoint x="490" y="640" />
              <mxPoint x="490" y="640" />
            </Array>
          </mxGeometry>
        </mxCell>
        <mxCell id="BTWe6J0kIdqasKM9f--1-89" style="edgeStyle=orthogonalEdgeStyle;rounded=0;orthogonalLoop=1;jettySize=auto;html=1;strokeColor=#FF3333;fontColor=#1A1A1A;fillColor=#f8cecc;entryX=0.621;entryY=0;entryDx=0;entryDy=0;entryPerimeter=0;" edge="1" parent="1" source="BTWe6J0kIdqasKM9f--1-27" target="BTWe6J0kIdqasKM9f--1-26">
          <mxGeometry relative="1" as="geometry">
            <mxPoint x="640" y="420" as="targetPoint" />
            <Array as="points">
              <mxPoint x="430" y="550" />
              <mxPoint x="237" y="550" />
            </Array>
          </mxGeometry>
        </mxCell>
        <mxCell id="BTWe6J0kIdqasKM9f--1-93" style="edgeStyle=orthogonalEdgeStyle;rounded=0;orthogonalLoop=1;jettySize=auto;html=1;entryX=0.75;entryY=1;entryDx=0;entryDy=0;strokeColor=#82b366;fontColor=#1A1A1A;fillColor=#d5e8d4;exitX=0.556;exitY=0;exitDx=0;exitDy=0;exitPerimeter=0;" edge="1" parent="1" source="BTWe6J0kIdqasKM9f--1-28" target="BTWe6J0kIdqasKM9f--1-27">
          <mxGeometry relative="1" as="geometry">
            <mxPoint x="485" y="570" as="sourcePoint" />
            <mxPoint x="478" y="510" as="targetPoint" />
            <Array as="points">
              <mxPoint x="610" y="529" />
              <mxPoint x="485" y="529" />
            </Array>
          </mxGeometry>
        </mxCell>
        <mxCell id="BTWe6J0kIdqasKM9f--1-99" style="edgeStyle=orthogonalEdgeStyle;rounded=0;orthogonalLoop=1;jettySize=auto;html=1;strokeColor=#736CA8;fontColor=#1A1A1A;exitX=0.5;exitY=0;exitDx=0;exitDy=0;" edge="1" parent="1" target="BTWe6J0kIdqasKM9f--1-64">
          <mxGeometry relative="1" as="geometry">
            <mxPoint x="150" y="351.72" as="sourcePoint" />
            <mxPoint x="347.57359312880726" y="140.00427124746167" as="targetPoint" />
            <Array as="points">
              <mxPoint x="150" y="200" />
              <mxPoint x="400" y="200" />
            </Array>
          </mxGeometry>
        </mxCell>
        <mxCell id="BTWe6J0kIdqasKM9f--1-100" style="edgeStyle=orthogonalEdgeStyle;rounded=0;orthogonalLoop=1;jettySize=auto;html=1;strokeColor=#82b366;fontColor=#1A1A1A;fillColor=#d5e8d4;" edge="1" parent="1">
          <mxGeometry relative="1" as="geometry">
            <mxPoint x="175" y="350" as="sourcePoint" />
            <mxPoint x="420" y="90" as="targetPoint" />
            <Array as="points">
              <mxPoint x="175" y="240" />
              <mxPoint x="420" y="240" />
            </Array>
          </mxGeometry>
        </mxCell>
        <mxCell id="BTWe6J0kIdqasKM9f--1-102" style="edgeStyle=orthogonalEdgeStyle;rounded=0;orthogonalLoop=1;jettySize=auto;html=1;entryX=1.017;entryY=0.275;entryDx=0;entryDy=0;entryPerimeter=0;strokeColor=#736CA8;fontColor=#1A1A1A;" edge="1" parent="1" source="BTWe6J0kIdqasKM9f--1-50" target="BTWe6J0kIdqasKM9f--1-38">
          <mxGeometry relative="1" as="geometry" />
        </mxCell>
      </root>
    </mxGraphModel>
  </diagram>
</mxfile>
